<svg width="476" height="170" viewBox="0 0 476 170" fill="none" xmlns="http://www.w3.org/2000/svg">
<g filter="url(#filter0_dd_136_21)">
<circle cx="64.5" cy="113.5" r="43.5" fill="#C0C0C0"/>
<circle cx="244.5" cy="118.5" r="43.5" fill="#C0C0C0"/>
<circle cx="244.5" cy="85.5" r="43.5" fill="#C0C0C0"/>
<circle cx="101.5" cy="111.5" r="43.5" fill="#C0C0C0"/>
<circle cx="298.5" cy="113.5" r="43.5" fill="#C0C0C0"/>
<circle cx="344.5" cy="111.5" r="43.5" fill="#C0C0C0"/>
<circle cx="157.5" cy="113.5" r="43.5" fill="#C0C0C0"/>
<circle cx="378.5" cy="113.5" r="43.5" fill="#C0C0C0"/>
<circle cx="198.5" cy="113.5" r="43.5" fill="#C0C0C0"/>
<circle cx="428.5" cy="113.5" r="43.5" fill="#C0C0C0"/>
<circle cx="47.5" cy="92.5" r="43.5" fill="#D4D3D3"/>
<circle cx="227.5" cy="97.5" r="43.5" fill="#D4D3D3"/>
<circle cx="227.5" cy="64.5" r="43.5" fill="#D4D3D3"/>
<circle cx="84.5" cy="90.5" r="43.5" fill="#D4D3D3"/>
<circle cx="281.5" cy="92.5" r="43.5" fill="#D4D3D3"/>
<circle cx="327.5" cy="90.5" r="43.5" fill="#D4D3D3"/>
<circle cx="140.5" cy="92.5" r="43.5" fill="#D4D3D3"/>
<circle cx="361.5" cy="92.5" r="43.5" fill="#D4D3D3"/>
<circle cx="181.5" cy="92.5" r="43.5" fill="#D4D3D3"/>
<circle cx="411.5" cy="92.5" r="43.5" fill="#D4D3D3"/>
<circle cx="57.5" cy="71.5" r="43.5" fill="#E4E4E4"/>
<circle cx="237.5" cy="76.5" r="43.5" fill="#E4E4E4"/>
<circle cx="237.5" cy="43.5" r="43.5" fill="#E4E4E4"/>
<circle cx="94.5" cy="69.5" r="43.5" fill="#E4E4E4"/>
<circle cx="291.5" cy="71.5" r="43.5" fill="#E4E4E4"/>
<circle cx="337.5" cy="69.5" r="43.5" fill="#E4E4E4"/>
<circle cx="150.5" cy="71.5" r="43.5" fill="#E4E4E4"/>
<circle cx="371.5" cy="71.5" r="43.5" fill="#E4E4E4"/>
<circle cx="191.5" cy="71.5" r="43.5" fill="#E4E4E4"/>
<circle cx="421.5" cy="71.5" r="43.5" fill="#E4E4E4"/>
</g>
<defs>
<filter id="filter0_dd_136_21" x="0" y="0" width="476" height="170" filterUnits="userSpaceOnUse" color-interpolation-filters="sRGB">
<feFlood flood-opacity="0" result="BackgroundImageFix"/>
<feColorMatrix in="SourceAlpha" type="matrix" values="0 0 0 0 0 0 0 0 0 0 0 0 0 0 0 0 0 0 127 0" result="hardAlpha"/>
<feOffset dy="4"/>
<feGaussianBlur stdDeviation="2"/>
<feComposite in2="hardAlpha" operator="out"/>
<feColorMatrix type="matrix" values="0 0 0 0 0 0 0 0 0 0 0 0 0 0 0 0 0 0 0.25 0"/>
<feBlend mode="normal" in2="BackgroundImageFix" result="effect1_dropShadow_136_21"/>
<feColorMatrix in="SourceAlpha" type="matrix" values="0 0 0 0 0 0 0 0 0 0 0 0 0 0 0 0 0 0 127 0" result="hardAlpha"/>
<feOffset dy="4"/>
<feGaussianBlur stdDeviation="2"/>
<feComposite in2="hardAlpha" operator="out"/>
<feColorMatrix type="matrix" values="0 0 0 0 0 0 0 0 0 0 0 0 0 0 0 0 0 0 0.25 0"/>
<feBlend mode="normal" in2="effect1_dropShadow_136_21" result="effect2_dropShadow_136_21"/>
<feBlend mode="normal" in="SourceGraphic" in2="effect2_dropShadow_136_21" result="shape"/>
</filter>
</defs>
</svg>
